<svg xmlns="http://www.w3.org/2000/svg" xmlns:xlink="http://www.w3.org/1999/xlink" viewBox="34 0 110 40"><path fill="#FFF" d="M127.3 18.9h6.7c-.1-1.2-.4-2.1-.9-2.6-.6-.6-1.4-.9-2.4-.9s-1.7.3-2.4.9c-.6.6-.9 1.5-1 2.6m7.9 5.1h3.3a7.7 7.7 0 0 1-2.7 4.2 8.5 8.5 0 0 1-5.1 1.5c-2.5 0-4.4-.8-5.8-2.4s-2.1-3.8-2.1-6.7c0-2.8.7-5 2-6.5a7.3 7.3 0 0 1 5.8-2.4 8 8 0 0 1 6.1 2.4 10 10 0 0 1 2.1 6.7v.8l-.1.5h-11.3c0 1.4.4 2.4 1 3 .6.7 1.4 1.1 2.6 1.1.7 0 1.4-.1 1.9-.5l1.2-1.1c.1-.5.5-.6 1.1-.6zM116.1 6.8h2.4c.6 0 1.1.2 1.6.6.4.4.7.9.7 1.5v20.4h-4.6V6.8zM109 20.5c0-1.6-.3-2.8-1-3.7s-1.5-1.4-2.7-1.4-2.2.4-2.8 1.3a6 6 0 0 0-1 3.7c0 1.8.3 3.2.9 4 .7.9 1.6 1.4 2.7 1.4 1.2 0 2.2-.5 2.8-1.4.8-.8 1.1-2.1 1.1-3.9zM101.6 9v5.2c.5-.8 1.2-1.5 2.1-2 .8-.4 1.7-.7 2.9-.7 2.1 0 3.7.8 5 2.6 1.3 1.7 2 3.9 2 6.6s-.7 4.9-2 6.6a6 6 0 0 1-2.6 1.8 9.6 9.6 0 0 1-3.3.6c-5.1 0-8.5-2.6-8.5-7.9v-15h2.2c.6 0 1.1.2 1.6.7.3.4.6.9.6 1.5zm-18 20.4h-4.5V18.3c0-1-.3-1.8-.9-2.3s-1.3-.7-2.1-.7-1.5.2-2.1.7-.9 1.2-.9 2.3v11.1h-4.6V19.2c0-3 .8-5 2.3-6a10.2 10.2 0 0 1 8-1.3c1 .2 1.8.7 2.6 1.3.7-.6 1.4-1 2.3-1.2s1.8-.4 2.8-.4c1.9 0 3.7.5 5.3 1.5s2.4 3 2.4 6.1v10.2H92c-.7 0-1.2-.2-1.6-.6s-.6-.9-.6-1.6v-8.9c0-1-.3-1.8-.9-2.3s-1.3-.7-2.1-.7-1.5.2-2.1.7-.9 1.2-.9 2.3v11.1zM66.1 12v10.2c0 3.1-.8 5.1-2.4 6.1a9.8 9.8 0 0 1-10.4-.2c-1.5-1-2.3-3-2.3-6V12h4.6v11.1c0 1 .3 1.8.9 2.3s1.3.7 2.1.7 1.5-.2 2.1-.7.9-1.2.9-2.3v-8.9c0-.6.2-1.1.6-1.6.4-.4 1-.7 1.6-.7h2.3zm-27 17.4V21c0-1.7.3-3.1.8-4.3s1.2-2.1 2.1-2.8c.8-.7 1.8-1.1 2.9-1.4s2.3-.5 3.4-.5h.6v4.6h-1.5c-1.3 0-2.2.3-2.8.9s-.9 1.6-.9 2.9v9h-4.6z"/></svg>
